<svg version="1.1" id="Layer_1" xmlns="http://www.w3.org/2000/svg" xmlns:xlink="http://www.w3.org/1999/xlink" x="0px" y="0px"
	 width="100%" viewBox="0 0 110 117" enable-background="new 0 0 110 117" xml:space="preserve">
<path fill="#FDFCFC" opacity="1.000000" stroke="none" 
	d="
M62.000000,118.000000 
	C41.333332,118.000000 21.166666,118.000000 1.000000,118.000000 
	C1.000000,79.000000 1.000000,40.000000 1.000000,1.000000 
	C37.666668,1.000000 74.333336,1.000000 111.000000,1.000000 
	C111.000000,40.000000 111.000000,79.000000 111.000000,118.000000 
	C94.833336,118.000000 78.666664,118.000000 62.000000,118.000000 
M75.119591,40.436798 
	C74.740761,40.069977 74.361923,39.703156 73.406502,38.996384 
	C72.573318,38.699612 71.740128,38.402843 70.930450,37.279232 
	C70.085632,35.122116 69.614204,31.374809 68.333481,31.074078 
	C61.606667,29.494528 54.696342,28.188017 47.808800,27.944414 
	C40.916447,27.700640 33.975815,28.821690 26.151564,29.412846 
	C26.337425,31.832912 26.595623,35.194824 26.038221,38.607170 
	C23.856771,38.853176 21.210464,39.078262 22.069712,42.151337 
	C23.323261,46.634632 25.152874,50.956860 26.473684,56.164711 
	C25.167009,64.300209 31.842560,64.234085 37.650009,65.409348 
	C35.391335,66.942421 34.121883,67.804054 32.947357,68.601265 
	C34.216888,70.524155 35.267773,72.115868 36.318661,73.707588 
	C35.910427,74.051506 35.502190,74.395432 35.093956,74.739349 
	C33.984173,73.876755 32.957745,72.859619 31.737658,72.201515 
	C30.798550,71.694969 29.615902,71.639938 28.541550,71.384125 
	C28.982830,72.552124 29.115494,74.050652 29.933874,74.814774 
	C31.349882,76.136902 33.191105,77.003632 34.956425,78.733505 
	C36.305984,80.488930 37.655544,82.244362 38.914467,84.802048 
	C38.248917,88.163284 39.368187,92.560799 33.351715,93.397942 
	C32.884285,94.310661 32.416855,95.223373 31.570555,96.875877 
	C33.938251,96.729416 35.491470,96.633339 37.852039,96.690941 
	C39.215641,96.641083 40.579243,96.591225 42.636024,96.541466 
	C42.495800,95.534904 42.355576,94.528343 42.049644,92.728416 
	C42.699089,90.422882 43.34853,88.117355 44.874268,86.108704 
	C48.226028,86.128494 51.577793,86.148285 54.848549,87.021820 
	C54.702061,89.896622 54.555576,92.771431 54.418041,95.470619 
	C57.708508,95.470619 61.018177,95.470619 64.327843,95.470619 
	C64.431488,94.981361 64.535126,94.492111 64.638763,94.002853 
	C62.565060,93.274208 60.491360,92.545563 58.046318,91.686440 
	C58.046318,90.269119 58.046318,88.645950 58.764736,86.996193 
	C60.693695,90.386169 63.093628,89.252373 65.846947,88.029892 
	C70.135208,86.125923 74.505386,84.279060 79.012589,83.025436 
	C85.774498,81.144699 91.355904,78.146042 94.468185,70.754578 
	C91.537483,70.620903 89.271378,70.517548 86.251877,70.118843 
	C80.934120,68.184364 75.616364,66.249886 69.700768,63.751610 
	C69.484734,63.583324 69.268700,63.415043 69.411415,62.560219 
	C69.748390,60.216743 70.085365,57.873272 70.845078,54.868916 
	C71.616661,51.925098 72.388245,48.981277 73.581772,45.630955 
	C73.782059,44.877670 73.982346,44.124386 74.783997,43.011387 
	C74.847145,42.340431 74.910294,41.669476 75.119591,40.436798 
M52.320312,17.936728 
	C52.370369,15.910869 52.420425,13.885009 52.470482,11.859150 
	C50.793507,11.849461 49.116531,11.839771 47.439560,11.830082 
	C47.467823,13.859629 47.302223,15.915785 47.576164,17.911610 
	C47.880394,20.128126 48.585560,22.289610 48.905674,23.608086 
	C49.568283,22.368500 50.628536,20.385023 52.320312,17.936728 
M33.305782,14.270140 
	C33.133297,13.805834 33.023869,12.976686 32.778469,12.934277 
	C30.587450,12.555613 28.372444,12.315728 26.194843,12.038839 
	C26.122089,17.650385 27.673883,18.958769 34.394207,18.247128 
	C34.125195,17.114075 33.861294,16.002556 33.305782,14.270140 
z"/>
<path fill="#F22E23" opacity="1.000000" stroke="none" 
	d="
M54.929554,86.168076 
	C51.577793,86.148285 48.226028,86.128494 44.347794,85.607574 
	C42.215912,84.737556 40.610508,84.368675 39.005104,83.999786 
	C37.655544,82.244362 36.305984,80.488930 35.224327,78.248741 
	C37.063797,76.416893 38.635368,75.069801 40.230095,73.702866 
	C38.690708,71.757637 37.520203,70.278549 36.229321,68.647339 
	C37.979755,68.122169 39.281544,67.731606 40.952446,67.230301 
	C37.843452,64.874290 36.471790,63.062424 40.501167,60.775505 
	C41.558174,60.175591 41.545803,57.691513 42.012856,56.047146 
	C42.001175,56.021568 42.056595,56.016052 42.231205,55.946716 
	C42.632687,55.755699 42.811741,55.584118 43.253628,55.287491 
	C44.059097,54.808987 44.553913,54.405628 45.431076,54.009026 
	C46.680389,54.393883 48.263950,54.705292 48.306282,55.160141 
	C48.893383,61.468590 53.893448,62.423126 57.577106,63.224827 
	C58.680046,66.097801 59.446911,68.095367 60.160938,70.471825 
	C61.808193,74.916176 61.740570,78.947151 58.852535,82.923126 
	C59.310886,83.023140 59.769241,83.123154 60.227592,83.223160 
	C61.062241,82.147255 61.896885,81.071342 63.136963,79.996490 
	C65.525978,79.840042 68.293022,80.235100 65.882820,76.647491 
	C66.349327,76.277214 66.674797,76.138626 67.423508,75.999924 
	C73.373001,75.442436 78.929955,75.070580 84.398621,74.165367 
	C85.445786,73.992027 86.145348,71.718689 87.005272,70.414192 
	C89.271378,70.517548 91.537483,70.620903 94.468185,70.754578 
	C91.355904,78.146042 85.774498,81.144699 79.012589,83.025436 
	C74.505386,84.279060 70.135208,86.125923 65.846947,88.029892 
	C63.093628,89.252373 60.693695,90.386169 58.146393,86.816208 
	C57.043850,85.918419 56.559658,85.200615 56.075462,84.482819 
	C55.693493,85.044571 55.311523,85.606316 54.929554,86.168076 
M50.281898,74.989960 
	C47.399418,74.022095 45.185440,74.331192 44.580257,78.326714 
	C46.100761,79.927147 47.763481,81.677269 49.426201,83.427391 
	C50.114510,83.150528 50.802814,82.873665 51.491123,82.596794 
	C51.328259,80.065186 51.165394,77.533569 51.273773,74.892647 
	C51.181896,74.927643 51.090019,74.962639 50.281898,74.989960 
M43.279423,71.885559 
	C43.47047,72.425339 43.661522,72.965118 43.852566,73.504890 
	C44.129570,73.378571 44.406570,73.252243 44.683578,73.125931 
	C44.359791,72.570274 44.035999,72.014610 43.279423,71.885559 
M49.711842,68.304054 
	C49.384232,68.634743 49.056622,68.965424 48.729008,69.296104 
	C49.107830,69.472755 49.486649,69.649399 49.865467,69.826050 
	C49.998394,69.343048 50.131325,68.860046 49.711842,68.304054 
M41.249432,75.171684 
	C41.413097,75.117584 41.576763,75.063484 41.740429,75.009392 
	C41.575825,74.956512 41.411224,74.903633 41.249432,75.171684 
z"/>
<path fill="#ED2C22" opacity="1.000000" stroke="none" 
	d="
M26.853819,38.556740 
	C26.595623,35.194824 26.337425,31.832912 26.151564,29.412846 
	C33.975815,28.821690 40.916447,27.70064 47.808800,27.944414 
	C54.696342,28.188017 61.606667,29.494528 68.333481,31.074078 
	C69.614204,31.374809 70.085632,35.122116 70.491058,37.714882 
	C64.012306,38.751713 57.972950,39.352898 51.700832,40.024269 
	C51.177780,40.284260 51.008648,40.550915 50.558037,40.964951 
	C48.805244,40.653221 47.425896,40.351532 46.109936,39.874855 
	C40.112114,37.702301 34.070347,36.670189 27.709347,38.935524 
	C27.250738,38.938824 27.012987,38.814411 26.853819,38.556740 
z"/>
<path fill="#F02D23" opacity="1.000000" stroke="none" 
	d="
M60.213776,70.092941 
	C59.446911,68.095367 58.680046,66.097801 57.577106,63.224827 
	C53.893448,62.423126 48.893383,61.468590 48.306282,55.160141 
	C48.263950,54.705292 46.680389,54.393883 45.436062,53.618973 
	C45.705715,51.129494 46.352726,49.036827 47.369560,46.994362 
	C48.647465,47.317104 49.555542,47.589638 50.479172,47.851681 
	C50.494717,47.841190 50.519718,47.864410 50.572353,48.067947 
	C50.769722,48.517353 50.920334,48.759567 51.063934,49.368324 
	C51.786030,53.126259 53.159111,56.429020 57.011658,56.560181 
	C61.465031,56.711792 65.950699,55.914879 70.422348,55.529797 
	C70.085365,57.873272 69.748390,60.216743 68.943840,63.012955 
	C67.680519,63.655106 66.884773,63.844521 65.723251,64.025002 
	C64.357651,64.230217 63.357822,64.444359 62.357990,64.658508 
	C62.446583,65.048302 62.535172,65.438087 62.623764,65.827881 
	C63.724422,65.559509 64.825081,65.291130 66.310776,65.016853 
	C67.896744,64.779099 69.097672,64.547256 70.298607,64.315407 
	C75.616364,66.249886 80.934120,68.184364 86.628571,70.266518 
	C86.145348,71.718689 85.445786,73.992027 84.398621,74.165367 
	C78.929955,75.070580 73.373001,75.442436 67.636765,75.677750 
	C67.717468,74.237221 68.008156,73.118767 68.658218,71.998795 
	C70.000778,71.470573 70.983963,70.943855 71.967155,70.417145 
	C71.686073,70.002464 71.404991,69.587784 71.123917,69.173103 
	C70.050644,69.796181 68.977371,70.419258 67.650810,70.935539 
	C66.749413,70.639442 66.101318,70.450150 65.319725,70.096077 
	C65.003433,69.923317 64.820641,69.915329 64.637840,69.907349 
	C64.827843,70.095291 65.017845,70.283234 65.163315,70.771332 
	C63.483784,70.745308 61.848778,70.419121 60.213776,70.092941 
z"/>
<path fill="#F02D23" opacity="1.000000" stroke="none" 
	d="
M42.024536,56.072723 
	C41.545803,57.691513 41.558174,60.175591 40.501167,60.775505 
	C36.471790,63.062424 37.843452,64.874290 40.952446,67.230301 
	C39.281544,67.731606 37.979755,68.122169 36.229321,68.647339 
	C37.520203,70.278549 38.690708,71.757637 40.230095,73.702866 
	C38.635368,75.069801 37.063797,76.416893 35.173096,77.912674 
	C33.191105,77.003632 31.349882,76.136902 29.933874,74.814774 
	C29.115494,74.050652 28.982830,72.552124 28.541550,71.384125 
	C29.615902,71.639938 30.798550,71.694969 31.737658,72.201515 
	C32.957745,72.859619 33.984173,73.876755 35.093956,74.739349 
	C35.502190,74.395432 35.910427,74.051506 36.318661,73.707588 
	C35.267773,72.115868 34.216888,70.524155 32.947357,68.601265 
	C34.121883,67.804054 35.391335,66.942421 37.650009,65.409348 
	C31.842560,64.234085 25.167009,64.300209 26.924931,55.958046 
	C29.586391,56.133503 31.796606,56.515621 34.417953,56.974121 
	C37.227566,56.724575 39.626053,56.398647 42.024536,56.072723 
z"/>
<path fill="#1B1C23" opacity="1.000000" stroke="none" 
	d="
M34.006821,56.897739 
	C31.796606,56.515621 29.586391,56.133503 27.056545,55.549568 
	C25.152874,50.956860 23.323261,46.634632 22.069712,42.151337 
	C21.210464,39.078262 23.856771,38.853176 26.446020,38.581955 
	C27.012987,38.814411 27.250738,38.938824 27.966358,39.070885 
	C28.590534,39.520966 28.815424,39.830151 28.894297,40.471710 
	C27.922201,41.827839 26.485514,42.788380 26.371901,43.885883 
	C25.761774,49.779724 28.011971,53.119034 33.944916,56.059395 
	C33.986084,56.524574 33.996452,56.711155 34.006821,56.897739 
z"/>
<path fill="#0C141B" opacity="1.000000" stroke="none" 
	d="
M70.633713,55.199356 
	C65.950699,55.914879 61.465031,56.711792 57.011658,56.560181 
	C53.159111,56.429020 51.786030,53.126259 51.347298,49.352261 
	C51.832211,48.951397 52.020870,48.936802 52.551102,49.018715 
	C54.093121,52.777287 56.324097,54.774414 60.464359,54.955124 
	C67.167625,55.247704 67.989418,54.760208 71.464432,46.011257 
	C72.255653,46.019131 72.707741,46.028294 73.159821,46.037457 
	C72.388245,48.981277 71.616661,51.925098 70.633713,55.199356 
z"/>
<path fill="#ED3329" opacity="1.000000" stroke="none" 
	d="
M52.004547,18.169136 
	C50.628536,20.385023 49.568283,22.368500 48.905674,23.608086 
	C48.585560,22.289610 47.880394,20.128126 47.576164,17.911610 
	C47.302223,15.915785 47.467823,13.859629 47.439560,11.830082 
	C49.116531,11.839771 50.793507,11.849461 52.470482,11.859150 
	C52.420425,13.885009 52.370369,15.910869 52.004547,18.169136 
z"/>
<path fill="#F02D23" opacity="1.000000" stroke="none" 
	d="
M38.959785,84.400917 
	C40.610508,84.368675 42.215912,84.737556 43.909645,85.459129 
	C43.34853,88.117355 42.699089,90.422882 42.080524,93.501587 
	C42.055218,95.030289 41.999031,95.785820 41.942844,96.541359 
	C40.579243,96.591225 39.215641,96.641083 37.352821,96.325874 
	C35.913223,95.044037 34.972843,94.127274 34.032467,93.210503 
	C39.368187,92.560799 38.248917,88.163284 38.959785,84.400917 
z"/>
<path fill="#151E25" opacity="1.000000" stroke="none" 
	d="
M51.933590,39.954079 
	C57.972950,39.352898 64.012306,38.751713 70.479309,38.128304 
	C71.740128,38.402843 72.573318,38.699612 73.722099,39.422577 
	C74.349609,40.232021 74.661522,40.615273 74.973442,40.998520 
	C74.910294,41.669476 74.847145,42.340431 74.261993,42.870518 
	C72.751785,42.515266 71.763588,42.300884 70.431473,41.942665 
	C64.414536,41.592155 58.741528,41.385487 52.943146,40.921043 
	C52.523041,40.426872 52.228317,40.190475 51.933590,39.954079 
z"/>
<path fill="#F02D23" opacity="1.000000" stroke="none" 
	d="
M54.889053,86.594940 
	C55.311523,85.606316 55.693493,85.044571 56.075462,84.482819 
	C56.559658,85.200615 57.043850,85.918419 57.787182,86.829498 
	C58.046318,88.645950 58.046318,90.269119 58.046318,91.686440 
	C60.491360,92.545563 62.565060,93.274208 64.638763,94.002853 
	C64.535126,94.492111 64.431488,94.981361 64.327843,95.470619 
	C61.018177,95.470619 57.708508,95.470619 54.418041,95.470619 
	C54.555576,92.771431 54.702061,89.896622 54.889053,86.594940 
z"/>
<path fill="#F33B31" opacity="1.000000" stroke="none" 
	d="
M33.451588,14.580589 
	C33.861294,16.002556 34.125195,17.114075 34.394207,18.247128 
	C27.673883,18.958769 26.122089,17.650385 26.194843,12.038839 
	C28.372444,12.315728 30.587450,12.555613 32.778469,12.934277 
	C33.023869,12.976686 33.133297,13.805834 33.451588,14.580589 
z"/>
<path fill="#F4423A" opacity="1.000000" stroke="none" 
	d="
M33.692093,93.304222 
	C34.972843,94.127274 35.913223,95.044037 36.949142,96.249039 
	C35.491470,96.633339 33.938251,96.729416 31.570555,96.875877 
	C32.416855,95.223373 32.884285,94.310661 33.692093,93.304222 
z"/>
<path fill="#19272D" opacity="1.000000" stroke="none" 
	d="
M70.775391,42.086502 
	C71.763588,42.300884 72.751785,42.515266 73.961304,43.050377 
	C73.982346,44.124386 73.782059,44.877670 73.370796,45.834206 
	C72.707741,46.028294 72.255653,46.019131 71.404022,45.620041 
	C70.928108,44.182240 70.851753,43.134373 70.775391,42.086502 
z"/>
<path fill="#F4423A" opacity="1.000000" stroke="none" 
	d="
M42.289436,96.541412 
	C41.999031,95.785820 42.055218,95.030289 42.163376,93.898270 
	C42.355576,94.528343 42.495800,95.534904 42.289436,96.541412 
z"/>
<path fill="#19272D" opacity="1.000000" stroke="none" 
	d="
M75.046516,40.717659 
	C74.661522,40.615273 74.349609,40.232021 74.010391,39.592552 
	C74.361923,39.703156 74.740761,40.069977 75.046516,40.717659 
z"/>
<path fill="#FCEBE9" opacity="1.000000" stroke="none" 
	d="
M65.453217,70.260849 
	C66.101318,70.450150 66.749413,70.639442 67.707779,71.192215 
	C68.111641,71.703896 68.205238,71.852104 68.298843,72.000305 
	C68.008156,73.118767 67.717468,74.237221 67.213524,75.677856 
	C66.674797,76.138626 66.349327,76.277214 65.568192,76.736832 
	C64.318863,78.037048 63.525196,79.016243 62.731529,79.995438 
	C61.896885,81.071342 61.062241,82.147255 60.227592,83.223160 
	C59.769241,83.123154 59.310886,83.023140 58.852535,82.923126 
	C61.740570,78.947151 61.808193,74.916176 60.160938,70.471832 
	C61.848778,70.419121 63.483784,70.745308 65.198586,70.688332 
	C65.278381,70.305168 65.453217,70.260849 65.453217,70.260849 
z"/>
<path fill="#F02D23" opacity="1.000000" stroke="none" 
	d="
M51.002529,75.001953 
	C51.165394,77.533569 51.328259,80.065186 51.491123,82.596794 
	C50.802814,82.873665 50.114510,83.150528 49.426201,83.427391 
	C47.763481,81.677269 46.100761,79.927147 44.580257,78.326714 
	C45.185440,74.331192 47.399418,74.022095 50.640949,74.994980 
	C51.000000,75.000000 51.002529,75.001953 51.002529,75.001953 
z"/>
<path fill="#0C141B" opacity="1.000000" stroke="none" 
	d="
M34.417953,56.974121 
	C33.996452,56.711155 33.986084,56.524574 34.150467,55.717594 
	C38.372196,54.827499 42.769161,55.189613 43.938782,49.746353 
	C44.350632,47.829662 44.774635,45.915581 45.516045,44.066124 
	C46.225914,45.069347 46.612827,46.006752 46.999737,46.944157 
	C46.352726,49.036827 45.705715,51.129494 45.053719,53.612221 
	C44.553913,54.405628 44.059097,54.808987 43.024994,55.211552 
	C42.160069,55.381870 42.017033,55.650303 42.056595,56.016052 
	C42.056595,56.016052 42.001175,56.021568 42.012856,56.047146 
	C39.626053,56.398647 37.227566,56.724575 34.417953,56.974121 
z"/>
<path fill="#F02D23" opacity="1.000000" stroke="none" 
	d="
M63.136963,79.996490 
	C63.525196,79.016243 64.318863,78.037048 65.427155,76.968521 
	C68.293022,80.235100 65.525978,79.840042 63.136963,79.996490 
z"/>
<path fill="#F02D23" opacity="1.000000" stroke="none" 
	d="
M43.495815,71.672256 
	C44.035999,72.014610 44.359791,72.570274 44.683578,73.125931 
	C44.406570,73.252243 44.129570,73.378571 43.852570,73.504898 
	C43.661522,72.965118 43.470470,72.425339 43.495815,71.672256 
z"/>
<path fill="#F02D23" opacity="1.000000" stroke="none" 
	d="
M49.988045,68.340546 
	C50.131325,68.860046 49.998394,69.343048 49.865471,69.826050 
	C49.486649,69.649399 49.107830,69.472755 48.729012,69.296104 
	C49.056622,68.965424 49.384232,68.634743 49.988045,68.340546 
z"/>
<path fill="#F02D23" opacity="1.000000" stroke="none" 
	d="
M41.248028,75.011223 
	C41.411224,74.903633 41.575825,74.956512 41.740429,75.009384 
	C41.576763,75.063484 41.413097,75.117584 41.248028,75.011223 
z"/>
<path fill="#F02D23" opacity="1.000000" stroke="none" 
	d="
M50.999069,74.998817 
	C51.090019,74.962639 51.181896,74.927643 51.138153,74.947296 
	C51.002529,75.001953 51.000000,75.000000 50.999069,74.998817 
z"/>
<path fill="#F02D23" opacity="1.000000" stroke="none" 
	d="
M42.231205,55.946716 
	C42.017033,55.650303 42.160069,55.381870 42.714340,55.286697 
	C42.811741,55.584118 42.632687,55.755699 42.231205,55.946716 
z"/>
<path fill="#0C151C" opacity="1.000000" stroke="none" 
	d="
M47.369560,46.994362 
	C46.612827,46.006752 46.225914,45.069347 45.395351,43.703873 
	C43.824661,42.528053 42.762272,41.278664 41.558853,41.123573 
	C37.412590,40.589214 33.217072,40.437073 29.040314,40.139332 
	C28.815424,39.830151 28.590534,39.520966 28.108635,39.076427 
	C34.070347,36.670189 40.112114,37.702301 46.109936,39.874855 
	C47.425896,40.351532 48.805244,40.653221 50.570446,41.458420 
	C50.811535,43.874958 50.637581,45.868565 50.463623,47.862171 
	C49.555542,47.589638 48.647465,47.317104 47.369560,46.994362 
z"/>
<path fill="#0C141B" opacity="1.000000" stroke="none" 
	d="
M50.479172,47.851681 
	C50.637581,45.868565 50.811535,43.874958 50.973083,41.387882 
	C51.008648,40.550915 51.177780,40.284260 51.700832,40.024265 
	C52.228317,40.190475 52.523041,40.426872 52.778206,41.265358 
	C52.440250,43.577927 52.141857,45.288406 51.475166,47.158127 
	C50.911152,47.499714 50.715435,47.682064 50.519718,47.864410 
	C50.519718,47.864410 50.494717,47.841190 50.479172,47.851681 
z"/>
<path fill="#F22E23" opacity="1.000000" stroke="none" 
	d="
M68.658218,71.998795 
	C68.205238,71.852104 68.111641,71.703896 67.961075,71.299011 
	C68.977371,70.419258 70.050644,69.796181 71.123917,69.173103 
	C71.404991,69.587784 71.686073,70.002464 71.967155,70.417145 
	C70.983963,70.943855 70.000778,71.470573 68.658218,71.998795 
z"/>
<path fill="#F22E23" opacity="1.000000" stroke="none" 
	d="
M65.925743,65.022758 
	C64.825081,65.291130 63.724422,65.559509 62.623764,65.827881 
	C62.535172,65.438087 62.446583,65.048302 62.357990,64.658508 
	C63.357822,64.444359 64.357651,64.230217 65.630707,64.263672 
	C65.911209,64.681763 65.918472,64.852264 65.925743,65.022758 
z"/>
<path fill="#FDFCFC" opacity="1.000000" stroke="none" 
	d="
M66.310776,65.016853 
	C65.918472,64.852264 65.911209,64.681763 65.996483,64.272598 
	C66.884773,63.844521 67.680519,63.655106 68.764465,63.356228 
	C69.268700,63.415043 69.484734,63.583324 69.999687,64.033508 
	C69.097672,64.547256 67.896744,64.779099 66.310776,65.016853 
z"/>
<path fill="#0C151C" opacity="1.000000" stroke="none" 
	d="
M50.572353,48.067947 
	C50.715435,47.682064 50.911152,47.499714 51.559830,47.473961 
	C52.078369,48.061104 52.143948,48.491653 52.209526,48.922203 
	C52.020870,48.936802 51.832211,48.951397 51.360184,48.982059 
	C50.920334,48.759567 50.769722,48.517353 50.572353,48.067947 
z"/>
<path fill="#F22E23" opacity="1.000000" stroke="none" 
	d="
M65.243118,70.388168 
	C65.017845,70.283234 64.827843,70.095291 64.637840,69.907349 
	C64.820641,69.915329 65.003433,69.923317 65.319725,70.096069 
	C65.453217,70.260849 65.278381,70.305168 65.243118,70.388168 
z"/>
<path fill="#F3F3F4" opacity="1.000000" stroke="none" 
	d="
M28.894297,40.471710 
	C33.217072,40.437073 37.412590,40.589214 41.558853,41.123573 
	C42.762272,41.278664 43.824661,42.528053 45.072392,43.638054 
	C44.774635,45.915581 44.350632,47.829662 43.938782,49.746353 
	C42.769161,55.189613 38.372196,54.827499 34.119667,55.438992 
	C28.011971,53.119034 25.761774,49.779724 26.371901,43.885883 
	C26.485514,42.788380 27.922201,41.827839 28.894297,40.471710 
z"/>
<path fill="#F4F4F5" opacity="1.000000" stroke="none" 
	d="
M52.551105,49.018715 
	C52.143948,48.491653 52.078369,48.061104 51.928127,47.314720 
	C52.141857,45.288406 52.440250,43.577927 52.903580,41.523132 
	C58.741528,41.385487 64.414536,41.592155 70.431473,41.942661 
	C70.851753,43.134373 70.928108,44.182240 71.064880,45.621330 
	C67.989418,54.760208 67.167625,55.247704 60.464359,54.955124 
	C56.324097,54.774414 54.093121,52.777287 52.551105,49.018715 
z"/>
</svg>
